<mxfile host="app.diagrams.net" modified="2020-11-13T06:41:09.075Z" agent="5.0 (Macintosh; Intel Mac OS X 10_15_7) AppleWebKit/537.36 (KHTML, like Gecko) Chrome/86.0.4240.198 Safari/537.36" etag="S0O-uHp0bhAXAdCdZTYU" version="13.9.7" type="github">
  <diagram id="kgpKYQtTHZ0yAKxKKP6v" name="Page-1">
    <mxGraphModel dx="946" dy="1689" grid="1" gridSize="10" guides="1" tooltips="1" connect="1" arrows="1" fold="1" page="1" pageScale="1" pageWidth="850" pageHeight="1100" math="0" shadow="0">
      <root>
        <mxCell id="0" />
        <mxCell id="1" parent="0" />
        <mxCell id="3nuBFxr9cyL0pnOWT2aG-1" value="Existing Buildings" style="shape=umlLifeline;perimeter=lifelinePerimeter;container=1;collapsible=0;recursiveResize=0;rounded=0;shadow=0;strokeWidth=1;" parent="1" vertex="1">
          <mxGeometry x="120" y="80" width="100" height="300" as="geometry" />
        </mxCell>
        <mxCell id="3nuBFxr9cyL0pnOWT2aG-2" value="" style="points=[];perimeter=orthogonalPerimeter;rounded=0;shadow=0;strokeWidth=1;" parent="3nuBFxr9cyL0pnOWT2aG-1" vertex="1">
          <mxGeometry x="45" y="70" width="10" height="190" as="geometry" />
        </mxCell>
        <mxCell id="3nuBFxr9cyL0pnOWT2aG-5" value="Bungalow House" style="shape=umlLifeline;perimeter=lifelinePerimeter;container=1;collapsible=0;recursiveResize=0;rounded=0;shadow=0;strokeWidth=1;" parent="1" vertex="1">
          <mxGeometry x="240" y="80" width="100" height="340" as="geometry" />
        </mxCell>
        <mxCell id="3nuBFxr9cyL0pnOWT2aG-6" value="" style="points=[];perimeter=orthogonalPerimeter;rounded=0;shadow=0;strokeWidth=1;" parent="3nuBFxr9cyL0pnOWT2aG-5" vertex="1">
          <mxGeometry x="45" y="80" width="10" height="260" as="geometry" />
        </mxCell>
        <mxCell id="Z00XlJtBC1bjjV_jEqtF-1" value="Fenestrations" style="rounded=0;whiteSpace=wrap;html=1;" vertex="1" parent="1">
          <mxGeometry x="50" y="160" width="120" height="40" as="geometry" />
        </mxCell>
        <mxCell id="Z00XlJtBC1bjjV_jEqtF-2" value="Interiors" style="rounded=0;whiteSpace=wrap;html=1;" vertex="1" parent="1">
          <mxGeometry x="50" y="210" width="120" height="40" as="geometry" />
        </mxCell>
        <mxCell id="Z00XlJtBC1bjjV_jEqtF-3" value="" style="rounded=0;whiteSpace=wrap;html=1;" vertex="1" parent="1">
          <mxGeometry x="50" y="260" width="120" height="40" as="geometry" />
        </mxCell>
        <mxCell id="Z00XlJtBC1bjjV_jEqtF-8" value="" style="edgeStyle=orthogonalEdgeStyle;rounded=0;orthogonalLoop=1;jettySize=auto;html=1;" edge="1" parent="1" source="Z00XlJtBC1bjjV_jEqtF-4" target="Z00XlJtBC1bjjV_jEqtF-7">
          <mxGeometry relative="1" as="geometry" />
        </mxCell>
        <mxCell id="Z00XlJtBC1bjjV_jEqtF-10" value="" style="edgeStyle=orthogonalEdgeStyle;rounded=0;orthogonalLoop=1;jettySize=auto;html=1;" edge="1" parent="1" source="Z00XlJtBC1bjjV_jEqtF-4" target="Z00XlJtBC1bjjV_jEqtF-9">
          <mxGeometry relative="1" as="geometry" />
        </mxCell>
        <mxCell id="Z00XlJtBC1bjjV_jEqtF-4" value="Building envelope and facade" style="rounded=0;whiteSpace=wrap;html=1;" vertex="1" parent="1">
          <mxGeometry x="290" y="170" width="120" height="40" as="geometry" />
        </mxCell>
        <mxCell id="Z00XlJtBC1bjjV_jEqtF-5" value="Structure" style="rounded=0;whiteSpace=wrap;html=1;" vertex="1" parent="1">
          <mxGeometry x="290" y="220" width="120" height="40" as="geometry" />
        </mxCell>
        <mxCell id="Z00XlJtBC1bjjV_jEqtF-12" value="" style="edgeStyle=orthogonalEdgeStyle;rounded=0;orthogonalLoop=1;jettySize=auto;html=1;" edge="1" parent="1" source="Z00XlJtBC1bjjV_jEqtF-6" target="Z00XlJtBC1bjjV_jEqtF-11">
          <mxGeometry relative="1" as="geometry" />
        </mxCell>
        <mxCell id="Z00XlJtBC1bjjV_jEqtF-14" value="" style="edgeStyle=orthogonalEdgeStyle;rounded=0;orthogonalLoop=1;jettySize=auto;html=1;" edge="1" parent="1" source="Z00XlJtBC1bjjV_jEqtF-6" target="Z00XlJtBC1bjjV_jEqtF-13">
          <mxGeometry relative="1" as="geometry" />
        </mxCell>
        <mxCell id="Z00XlJtBC1bjjV_jEqtF-6" value="Roofs&amp;nbsp;" style="rounded=0;whiteSpace=wrap;html=1;" vertex="1" parent="1">
          <mxGeometry x="290" y="270" width="120" height="40" as="geometry" />
        </mxCell>
        <mxCell id="Z00XlJtBC1bjjV_jEqtF-20" value="" style="edgeStyle=orthogonalEdgeStyle;rounded=0;orthogonalLoop=1;jettySize=auto;html=1;" edge="1" parent="1" source="Z00XlJtBC1bjjV_jEqtF-7" target="Z00XlJtBC1bjjV_jEqtF-19">
          <mxGeometry relative="1" as="geometry" />
        </mxCell>
        <mxCell id="Z00XlJtBC1bjjV_jEqtF-7" value="Ventilation" style="whiteSpace=wrap;html=1;rounded=0;" vertex="1" parent="1">
          <mxGeometry x="450" y="170" width="110" height="50" as="geometry" />
        </mxCell>
        <mxCell id="Z00XlJtBC1bjjV_jEqtF-18" value="" style="edgeStyle=orthogonalEdgeStyle;rounded=0;orthogonalLoop=1;jettySize=auto;html=1;" edge="1" parent="1" source="Z00XlJtBC1bjjV_jEqtF-9" target="Z00XlJtBC1bjjV_jEqtF-17">
          <mxGeometry relative="1" as="geometry" />
        </mxCell>
        <mxCell id="Z00XlJtBC1bjjV_jEqtF-29" value="" style="edgeStyle=orthogonalEdgeStyle;rounded=0;orthogonalLoop=1;jettySize=auto;html=1;" edge="1" parent="1" source="Z00XlJtBC1bjjV_jEqtF-9" target="Z00XlJtBC1bjjV_jEqtF-28">
          <mxGeometry relative="1" as="geometry" />
        </mxCell>
        <mxCell id="Z00XlJtBC1bjjV_jEqtF-9" value="Thermal comfort" style="whiteSpace=wrap;html=1;rounded=0;" vertex="1" parent="1">
          <mxGeometry x="400" y="40" width="120" height="60" as="geometry" />
        </mxCell>
        <mxCell id="Z00XlJtBC1bjjV_jEqtF-11" value="Renewable energy" style="rounded=0;whiteSpace=wrap;html=1;" vertex="1" parent="1">
          <mxGeometry x="460" y="270" width="120" height="40" as="geometry" />
        </mxCell>
        <mxCell id="Z00XlJtBC1bjjV_jEqtF-13" value="Green roofs/ Biophilia" style="whiteSpace=wrap;html=1;rounded=0;" vertex="1" parent="1">
          <mxGeometry x="410" y="350" width="120" height="60" as="geometry" />
        </mxCell>
        <mxCell id="Z00XlJtBC1bjjV_jEqtF-17" value="Earth berm" style="whiteSpace=wrap;html=1;rounded=0;" vertex="1" parent="1">
          <mxGeometry x="550" y="40" width="120" height="60" as="geometry" />
        </mxCell>
        <mxCell id="Z00XlJtBC1bjjV_jEqtF-19" value="Kinetic facades" style="whiteSpace=wrap;html=1;rounded=0;" vertex="1" parent="1">
          <mxGeometry x="620" y="140" width="120" height="60" as="geometry" />
        </mxCell>
        <mxCell id="Z00XlJtBC1bjjV_jEqtF-22" value="Orientation" style="rounded=0;whiteSpace=wrap;html=1;" vertex="1" parent="1">
          <mxGeometry x="620" y="210" width="120" height="40" as="geometry" />
        </mxCell>
        <mxCell id="Z00XlJtBC1bjjV_jEqtF-24" value="" style="edgeStyle=orthogonalEdgeStyle;rounded=0;orthogonalLoop=1;jettySize=auto;html=1;entryX=0;entryY=0.25;entryDx=0;entryDy=0;" edge="1" parent="1" source="Z00XlJtBC1bjjV_jEqtF-7" target="Z00XlJtBC1bjjV_jEqtF-22">
          <mxGeometry relative="1" as="geometry">
            <mxPoint x="540" y="235" as="sourcePoint" />
            <mxPoint x="600" y="210" as="targetPoint" />
            <Array as="points">
              <mxPoint x="580" y="195" />
              <mxPoint x="580" y="220" />
            </Array>
          </mxGeometry>
        </mxCell>
        <mxCell id="Z00XlJtBC1bjjV_jEqtF-27" value="" style="edgeStyle=orthogonalEdgeStyle;rounded=0;orthogonalLoop=1;jettySize=auto;html=1;" edge="1" parent="1" source="Z00XlJtBC1bjjV_jEqtF-25" target="Z00XlJtBC1bjjV_jEqtF-26">
          <mxGeometry relative="1" as="geometry" />
        </mxCell>
        <mxCell id="Z00XlJtBC1bjjV_jEqtF-25" value="skins/ facades" style="rounded=0;whiteSpace=wrap;html=1;" vertex="1" parent="1">
          <mxGeometry x="800" y="140" width="120" height="60" as="geometry" />
        </mxCell>
        <mxCell id="Z00XlJtBC1bjjV_jEqtF-26" value="Surface area increased to dissipate heat" style="rounded=0;whiteSpace=wrap;html=1;" vertex="1" parent="1">
          <mxGeometry x="970" y="80" width="120" height="60" as="geometry" />
        </mxCell>
        <mxCell id="Z00XlJtBC1bjjV_jEqtF-28" value="Cooling, Dehumidified, insulated with earth" style="whiteSpace=wrap;html=1;rounded=0;" vertex="1" parent="1">
          <mxGeometry x="400" y="-100" width="120" height="60" as="geometry" />
        </mxCell>
      </root>
    </mxGraphModel>
  </diagram>
</mxfile>
